<?xml version="1.0" standalone="no"?>
<svg
  width="600"
  height="600"
  viewBox="0 0 600 600"
  xmlns="http://www.w3.org/2000/svg"
>
  <g transform="translate(300,300)">
    <path d="M165.8,-196.7C209.4,-160.9,235.7,-103.6,248,-42.4C260.4,18.7,258.8,83.6,231.8,137C204.8,190.5,152.3,232.4,98.3,238.2C44.3,244,-11.2,213.6,-64.3,189C-117.5,164.3,-168.3,145.4,-192.3,108.7C-216.3,71.9,-213.5,17.4,-207.3,-39.8C-201.1,-97,-191.5,-156.9,-156.4,-194.2C-121.3,-231.5,-60.6,-246.3,0.2,-246.5C61.1,-246.8,122.1,-232.5,165.8,-196.7Z" fill="#000000" />
  </g>
</svg>
  