<?xml version="1.0" encoding="iso-8859-1"?>
<!-- Generator: Adobe Illustrator 19.0.0, SVG Export Plug-In . SVG Version: 6.00 Build 0)  -->
<svg version="1.1" id="Layer_1" xmlns="http://www.w3.org/2000/svg" xmlns:xlink="http://www.w3.org/1999/xlink" x="0px" y="0px"
	 viewBox="0 0 512 512" style="enable-background:new 0 0 512 512;" xml:space="preserve">
<path style="fill:#CEE8FA;" d="M365.075,307.969L365.075,307.969c-0.209-21.573-17.756-38.95-39.33-38.95h-36.052v-54.677
	c0-15.267,12.377-27.643,27.643-27.643h13.209c19.534,0,35.37-15.836,35.37-35.37l0,0c0-19.534-15.836-35.37-35.37-35.37h-32.525
	c-48.044,0-86.991,38.947-86.991,86.991v66.067h-25.613c-21.722,0-39.332,17.609-39.332,39.332l0,0
	c0,21.722,17.609,39.332,39.332,39.332h25.613v149.794h78.665V347.682h36.052C347.617,347.682,365.287,329.839,365.075,307.969z"/>
<g>
	<path style="fill:#2D527C;" d="M289.693,512h-78.665c-8.021,0-14.523-6.502-14.523-14.523V362.206h-11.09
		c-29.695,0-53.855-24.159-53.855-53.855s24.159-53.856,53.855-53.856h11.09v-51.544c0-55.975,45.539-101.514,101.514-101.514
		h32.525c27.511,0,49.893,22.382,49.893,49.893c0,27.51-22.382,49.893-49.893,49.893h-13.209c-7.234,0-13.12,5.886-13.12,13.12
		v40.154h21.529c29.409,0,53.567,23.925,53.853,53.332c0.141,14.484-5.395,28.128-15.588,38.419s-23.782,15.958-38.266,15.958
		h-21.528v135.271C304.216,505.498,297.714,512,289.693,512z M225.553,482.954h49.618V347.682c0-8.021,6.502-14.523,14.523-14.523
		h36.052c6.672,0,12.933-2.611,17.627-7.352c4.695-4.74,7.246-11.026,7.18-17.698c-0.131-13.547-11.26-24.569-24.808-24.569h-36.052
		c-8.021,0-14.523-6.502-14.523-14.523v-54.677c0-23.25,18.915-42.166,42.166-42.166h13.209c11.495,0,20.847-9.351,20.847-20.847
		c0-11.495-9.351-20.847-20.847-20.847h-32.525c-39.959,0-72.468,32.509-72.468,72.468v66.067c0,8.021-6.502,14.523-14.523,14.523
		h-25.613c-13.679,0-24.808,11.129-24.808,24.81c0,13.679,11.129,24.808,24.808,24.808h25.613c8.021,0,14.523,6.502,14.523,14.523
		V482.954z"/>
	<path style="fill:#2D527C;" d="M432.464,512h-37.766c-8.021,0-14.523-6.502-14.523-14.523s6.502-14.523,14.523-14.523h37.766
		c27.839,0,50.49-22.65,50.49-50.49V79.536c0-27.839-22.65-50.49-50.49-50.49H214.367c-8.021,0-14.523-6.502-14.523-14.523
		S206.346,0,214.367,0h218.097C476.321,0,512,35.679,512,79.536v352.928C512,476.321,476.321,512,432.464,512z"/>
	<path style="fill:#2D527C;" d="M289.693,512H79.536C35.679,512,0,476.321,0,432.464V79.536C0,35.679,35.679,0,79.536,0h32.684
		c8.021,0,14.523,6.502,14.523,14.523s-6.502,14.523-14.523,14.523H79.536c-27.839,0-50.49,22.65-50.49,50.49v352.928
		c0,27.839,22.65,50.49,50.49,50.49h210.157c8.021,0,14.523,6.502,14.523,14.523S297.714,512,289.693,512z"/>
</g>
<g>
</g>
<g>
</g>
<g>
</g>
<g>
</g>
<g>
</g>
<g>
</g>
<g>
</g>
<g>
</g>
<g>
</g>
<g>
</g>
<g>
</g>
<g>
</g>
<g>
</g>
<g>
</g>
<g>
</g>
</svg>
