<?xml version="1.0" encoding="iso-8859-1"?>
<!-- Generator: Adobe Illustrator 19.0.0, SVG Export Plug-In . SVG Version: 6.00 Build 0)  -->
<svg version="1.1" id="Layer_1" xmlns="http://www.w3.org/2000/svg" xmlns:xlink="http://www.w3.org/1999/xlink" x="0px" y="0px"
	 viewBox="0 0 512 512" style="enable-background:new 0 0 512 512;" xml:space="preserve">
<g>
	<path style="fill:#507C5C;" d="M432.464,512h-37.766c-8.021,0-14.523-6.502-14.523-14.523s6.502-14.523,14.523-14.523h37.766
		c27.839,0,50.49-22.65,50.49-50.49V79.536c0-27.839-22.65-50.49-50.49-50.49H214.367c-8.021,0-14.523-6.502-14.523-14.523
		S206.346,0,214.367,0h218.097C476.321,0,512,35.679,512,79.536v352.928C512,476.321,476.321,512,432.464,512z"/>
	<path style="fill:#507C5C;" d="M289.693,512H79.536C35.679,512,0,476.321,0,432.464V79.536C0,35.679,35.679,0,79.536,0h32.684
		c8.021,0,14.523,6.502,14.523,14.523s-6.502,14.523-14.523,14.523H79.536c-27.839,0-50.49,22.65-50.49,50.49v352.928
		c0,27.839,22.65,50.49,50.49,50.49h210.157c8.021,0,14.523,6.502,14.523,14.523S297.714,512,289.693,512z"/>
</g>
<path style="fill:#CFF09E;" d="M142.603,112.936c17.866,0.017,32.597,14.77,32.559,32.728c-0.042,18.797-15.643,32.966-32.78,32.561
	c-17.381,0.351-32.657-14.167-32.652-32.686C109.73,127.576,124.518,112.925,142.603,112.936L142.603,112.936z"/>
<path style="fill:#507C5C;" d="M143.095,192.755c-0.247,0-0.492-0.001-0.738-0.006c-0.198,0.003-0.395,0.004-0.593,0.004
	c-12.26,0-23.882-4.884-32.725-13.752c-8.924-8.949-13.836-20.835-13.833-33.466c0-25.982,21.253-47.122,47.376-47.122
	c12.558,0.013,24.368,4.947,33.288,13.896c8.935,8.962,13.841,20.819,13.814,33.386c-0.058,25.948-20.955,47.059-46.584,47.062
	C143.099,192.755,143.098,192.755,143.095,192.755z M142.382,163.7c0.115,0,0.229,0.001,0.344,0.004l0.372,0.004
	c8.452,0,17.518-7.264,17.541-18.078c0.01-4.8-1.885-9.351-5.339-12.815c-3.439-3.449-7.954-5.352-12.712-5.356
	c-10.114,0-18.337,8.11-18.337,18.08c-0.001,4.89,1.901,9.489,5.356,12.953c3.305,3.314,7.736,5.215,12.157,5.215l0.324-0.003
	C142.186,163.702,142.285,163.7,142.382,163.7z"/>
<path style="fill:#CFF09E;" d="M282.754,401.968v-93.876c0-17.281,13.621-31.839,30.898-32.198c8.98-0.186,17.13,3.381,22.987,9.24
	c5.713,5.709,9.245,13.604,9.245,22.321v94.514h56.382l0.004-98.072c0-60.625-32.639-87.29-66.876-87.29
	c-45.701,0-56.883,26.258-56.887,26.267v-23.779h-52.013V401.97h56.26V401.968z"/>
<path style="fill:#507C5C;" d="M402.266,416.492h-56.382c-8.021,0-14.523-6.502-14.523-14.523v-94.514
	c0-4.556-1.77-8.834-4.987-12.047c-3.224-3.224-7.504-4.997-12.054-4.997l-0.367,0.004c-9.196,0.19-16.675,8.12-16.675,17.678
	v93.876c0,8.021-6.502,14.523-14.523,14.523h-56.26c-8.021,0-14.523-6.502-14.523-14.523V219.095
	c0-8.021,6.502-14.523,14.523-14.523h52.013c5.387,0,10.089,2.934,12.596,7.289c10.979-5.692,25.558-9.777,44.291-9.777
	c40.517,0,81.399,31.482,81.399,101.813l-0.004,98.072C416.789,409.99,410.287,416.492,402.266,416.492z M360.409,387.445h27.335
	l0.003-83.549c0-53.65-27.044-72.767-52.353-72.767c-34.003,0-43.055,16.553-43.658,17.736c-2.797,6.175-9.507,9.607-16.169,8.23
	c-6.746-1.394-11.584-7.334-11.584-14.221v-9.256h-22.967v153.828h27.213v-79.353c0-25.244,20.241-46.202,45.12-46.718
	c12.69-0.263,24.624,4.557,33.557,13.491c8.704,8.696,13.498,20.271,13.498,32.59v79.989H360.409z"/>
<polygon style="fill:#CFF09E;" points="170.579,401.968 170.579,219.099 114.314,219.099 114.309,219.103 114.309,401.968 "/>
<path style="fill:#507C5C;" d="M170.579,416.492h-56.27c-8.021,0-14.523-6.502-14.523-14.523V219.103
	c0-8.021,6.508-14.528,14.529-14.528h56.263c8.021,0,14.523,6.502,14.523,14.523V401.97
	C185.102,409.99,178.6,416.492,170.579,416.492z M128.832,387.445h27.222V233.622h-27.222V387.445z"/>
<g>
</g>
<g>
</g>
<g>
</g>
<g>
</g>
<g>
</g>
<g>
</g>
<g>
</g>
<g>
</g>
<g>
</g>
<g>
</g>
<g>
</g>
<g>
</g>
<g>
</g>
<g>
</g>
<g>
</g>
</svg>
