<?xml version="1.0" encoding="iso-8859-1"?>
<!-- Generator: Adobe Illustrator 19.0.0, SVG Export Plug-In . SVG Version: 6.00 Build 0)  -->
<svg version="1.1" id="Layer_1" xmlns="http://www.w3.org/2000/svg" xmlns:xlink="http://www.w3.org/1999/xlink" x="0px" y="0px"
	 viewBox="0 0 512 512" style="enable-background:new 0 0 512 512;" xml:space="preserve">
<g>
	<path style="fill:#FFC61B;" d="M432.464,512h-37.766c-8.021,0-14.523-6.502-14.523-14.523s6.502-14.523,14.523-14.523h37.766
		c27.839,0,50.49-22.65,50.49-50.49V79.536c0-27.839-22.65-50.49-50.49-50.49H214.367c-8.021,0-14.523-6.502-14.523-14.523
		S206.346,0,214.367,0h218.097C476.321,0,512,35.679,512,79.536v352.928C512,476.321,476.321,512,432.464,512z"/>
	<path style="fill:#FFC61B;" d="M289.693,512H79.536C35.679,512,0,476.321,0,432.464V79.536C0,35.679,35.679,0,79.536,0h32.684
		c8.021,0,14.523,6.502,14.523,14.523s-6.502,14.523-14.523,14.523H79.536c-27.839,0-50.49,22.65-50.49,50.49v352.928
		c0,27.839,22.65,50.49,50.49,50.49h210.157c8.021,0,14.523,6.502,14.523,14.523S297.714,512,289.693,512z"/>
</g>
<path style="fill:#FEE187;" d="M402.448,169.183l-37.573-14.314c-7.963-17.818-20.947-30.558-38.881-34.726
	c-52.475-12.195-80.156,37.033-74.518,72.059c0.796,4.942,2.136,9.662,3.956,14.108c-4.695,0.562-73.226,7.687-132.133-37.704
	c-4.645-3.578-11.392-0.928-12.549,4.822c-3.234,16.051-2.402,45.263,35.436,69.081c0,0-7.501,0.903-16.841-0.574
	c-5.962-0.943-10.762,4.727-8.797,10.435c5.298,15.384,19.509,38.642,57.205,41.297c0,0-5.482,3.15-15.422,4.758
	c-5.975,0.966-8.71,8.055-4.9,12.759c8.991,11.101,26.897,25.645,57.978,23.09c0,0,2.216,25.736-88.895,41.628
	c-0.004,0.001,45.784,17.856,100.705,17.856c152.343,0,152.417-127.349,146.611-201.278L402.448,169.183z"/>
<path style="fill:#FFC61B;" d="M227.216,408.279c-29.812,0-56.906-5.079-74.386-9.34c-9.899-2.412-17.861-4.832-22.796-6.435
	c-10.017-3.256-17.255-5.607-18.004-15.505c-0.566-7.455,4.621-14.121,11.986-15.405c29.363-5.121,47.662-11.071,59.013-16.251
	c-14.512-4.518-27.174-13.027-36.886-25.018c-4.817-5.95-6.242-14.01-3.811-21.24c-21.532-11.084-31.252-29.598-35.519-41.983
	c-2.361-6.862-1.266-14.472,2.932-20.357c0.963-1.349,2.062-2.574,3.271-3.661C92.303,208.27,94.12,182.422,96.511,170.56
	c2.113-10.489,11.392-18.1,22.064-18.1c4.945,0,9.643,1.605,13.586,4.645c38.128,29.379,80.695,34.931,104.678,35.384
	c-2.892-22.019,4.393-46.243,19.265-63.7c13.769-16.161,32.952-25.063,54.014-25.063c6.219,0,12.666,0.765,19.16,2.274
	c19.847,4.613,35.696,17.474,46.139,37.348l32.199,12.268c4.849,1.847,8.344,6.142,9.168,11.263
	c0.823,5.122-1.147,10.297-5.172,13.572l-22.751,18.517c3.686,54.344,1.386,120.087-39.67,164.495
	C321.699,393.199,280.66,408.279,227.216,408.279z M185.193,375.808c12.767,2.01,27.067,3.425,42.024,3.425
	c45.014,0,78.878-11.941,100.651-35.492c35.351-38.238,35.394-100.316,31.482-150.126c-0.373-4.755,1.611-9.391,5.311-12.401
	l9.11-7.416l-14.066-5.359c-3.605-1.374-6.515-4.125-8.089-7.646c-6.547-14.651-16.275-23.568-28.91-26.505
	c-4.342-1.009-8.576-1.521-12.586-1.521c-15.912,0-26.131,8.078-31.904,14.854c-9.813,11.52-14.681,28.111-12.403,42.272
	c0.606,3.763,1.635,7.436,3.059,10.914c1.718,4.197,1.377,8.955-0.922,12.863c-2.299,3.908-6.291,6.519-10.794,7.058
	c-1.634,0.196-7.686,0.834-16.934,0.834c-25.045,0-71.965-4.671-116.114-34.471c0.548,13.123,7.266,28.933,29.812,43.125
	c5.204,3.276,7.781,9.473,6.434,15.474c-1.348,6.001-6.328,10.5-12.435,11.235c-0.523,0.062-3.352,0.378-7.604,0.378
	c-0.534,0-1.067-0.004-1.6-0.015c7.905,13.22,21.332,20.571,40.058,21.889c6.374,0.449,11.706,5.01,13.135,11.238
	c1.429,6.229-1.38,12.658-6.92,15.842c-0.777,0.446-3.621,1.991-8.333,3.574c7.177,5.571,17.435,10.211,31.684,10.211
	c1.91,0,3.889-0.083,5.88-0.247c7.959-0.652,14.973,5.259,15.66,13.228c0.289,3.355,0,15.258-15.839,27.568
	C206.824,366.201,197.185,371.28,185.193,375.808z"/>
<g>
</g>
<g>
</g>
<g>
</g>
<g>
</g>
<g>
</g>
<g>
</g>
<g>
</g>
<g>
</g>
<g>
</g>
<g>
</g>
<g>
</g>
<g>
</g>
<g>
</g>
<g>
</g>
<g>
</g>
</svg>
